<svg xmlns="http://www.w3.org/2000/svg" viewBox="0 0 800 800"><defs><clipPath id="a"><path d="M560.644 392.083L255.89 216.133A17.927 17.927 0 00229 231.658v351.9a17.927 17.927 0 0026.89 15.525l304.754-175.95a17.927 17.927 0 000-31.05z" fill="none"/></clipPath></defs><path fill="#fff" d="M0 0h800v800H0z"/><path fill="#fff" d="M0 0h800v800H0z"/><path fill="#fff" d="M0 0h800v800H0z"/><path fill="#fff" d="M0 0h800v800H0z"/><path d="M705.93 475.117L589 407.607v135a134.944 134.944 0 00116.93-67.49z" fill="#fff"/><circle cx="589" cy="407.608" r="135" fill="#eceff1"/><path d="M724 407.608a135 135 0 00-135-135v135l116.93 67.509a134.376 134.376 0 0018.07-67.51z" fill="#34a853"/><path d="M560.644 392.083L255.89 216.133A17.927 17.927 0 00229 231.658v351.9a17.927 17.927 0 0026.89 15.525l304.754-175.95a17.927 17.927 0 000-31.05z" fill="#ced8dd"/><path d="M724 407.608H589v135a135 135 0 00135-135z" fill="none"/><path d="M705.93 475.117L589 407.607v135a134.944 134.944 0 00116.93-67.49z" fill="#fff"/><circle cx="229" cy="200.608" r="135" fill="#eceff1"/><path d="M229 335.608a135 135 0 010-270" fill="#ced8dd"/><path d="M112.07 133.099L229 200.608v-135a134.943 134.943 0 00-116.93 67.49z" fill="#fbbc04"/><path d="M112.07 133.099L229 200.608v-135a134.943 134.943 0 00-116.93 67.49z" fill="#4285f4"/><path fill="none" d="M587.534 407.608L229 200.608v414l358.534-207z"/><path d="M229 335.608a134.944 134.944 0 00116.93-67.491l-90.04-51.984A17.927 17.927 0 00229 231.658z" fill="#fff"/><circle cx="166" cy="587.608" r="90" fill="#eceff1"/><circle cx="346" cy="587.608" r="90" fill="#eceff1"/><path fill="#eceff1" d="M166 497.608h180v180H166z"/><path d="M346 497.608H229v85.95a17.927 17.927 0 0026.89 15.525l144.316-83.321A89.597 89.597 0 00346 497.608z" fill="#fbbc04"/><g clip-path="url(#a)" fill="#fff"><path d="M346 497.608a90 90 0 010 180h-81.646L166 734.392v-56.784a90 90 0 010-180h180m0-10H166a100.003 100.003 0 00-10 199.504v64.6l15-8.66 96.034-55.444H346a100 100 0 000-200zM589 272.608a135 135 0 11-135 135 135 135 0 01135-135m0-10a145 145 0 10102.53 42.47A144.053 144.053 0 00589 262.607z"/></g><path fill="#eceff1" d="M166 734.392v-57.157h99l-99 57.157z"/></svg>